<svg xmlns="http://www.w3.org/2000/svg" width="1600" height="980" viewBox="0 0 1600 980">
  <defs>
    <style>
      .title { font: 700 34px 'Segoe UI', Arial, sans-serif; fill: #1f2937; }
      .subtitle { font: 500 18px 'Segoe UI', Arial, sans-serif; fill: #475569; }
      .zone-title { font: 700 26px 'Segoe UI', Arial, sans-serif; fill: #111827; }
      .label { font: 700 20px 'Segoe UI', Arial, sans-serif; fill: #111827; }
      .small { font: 500 15px 'Segoe UI', Arial, sans-serif; fill: #334155; }
      .ip { font: 500 14px 'Consolas', monospace; fill: #475569; }
      .box { fill: #ffffff; stroke: #94a3b8; stroke-width: 2; rx: 22; ry: 22; }
      .zone { fill: #f8fafc; stroke: #0f172a; stroke-width: 2; rx: 26; ry: 26; }
      .edge { stroke: #334155; stroke-width: 3; fill: none; }
      .dot { fill: #16a34a; }
    </style>
  </defs>

  <rect x="0" y="0" width="1600" height="980" fill="#f1f5f9"/>
  <text x="800" y="48" text-anchor="middle" class="title">Elusive Lab Docker Compose</text>
  <text x="800" y="78" text-anchor="middle" class="subtitle">Servicios, zonas de red e imagen Docker usada por cada nodo</text>

  <rect x="620" y="95" width="360" height="110" class="zone"/>
  <text x="800" y="128" text-anchor="middle" class="zone-title">EDGE</text>
  <rect x="675" y="145" width="250" height="42" class="box"/>
  <text x="800" y="170" text-anchor="middle" class="label">nat1</text>
  <text x="800" y="190" text-anchor="middle" class="small">image: alpine:3.20</text>

  <rect x="130" y="250" width="1340" height="280" class="zone"/>
  <text x="800" y="286" text-anchor="middle" class="zone-title">DMZ</text>

  <rect x="610" y="240" width="380" height="92" class="box"/>
  <text x="800" y="272" text-anchor="middle" class="label">firewall</text>
  <text x="800" y="295" text-anchor="middle" class="small">image: nicolaka/netshoot:latest</text>
  <text x="800" y="316" text-anchor="middle" class="ip">edge 172.30.0.2 | dmz 172.31.0.2</text>

  <rect x="650" y="352" width="300" height="98" class="box"/>
  <text x="800" y="385" text-anchor="middle" class="label">ips</text>
  <text x="800" y="408" text-anchor="middle" class="small">image: jasonish/suricata:7.0</text>
  <text x="800" y="429" text-anchor="middle" class="ip">dmz 172.31.0.10 | backend 172.32.0.10</text>

  <rect x="210" y="382" width="230" height="98" class="box"/>
  <text x="325" y="415" text-anchor="middle" class="label">web</text>
  <text x="325" y="438" text-anchor="middle" class="small">image: vulnerables/web-dvwa:latest</text>
  <text x="325" y="459" text-anchor="middle" class="ip">172.31.0.20</text>

  <rect x="495" y="382" width="230" height="98" class="box"/>
  <text x="610" y="415" text-anchor="middle" class="label">ldap</text>
  <text x="610" y="438" text-anchor="middle" class="small">image: osixia/openldap:1.5.0</text>
  <text x="610" y="459" text-anchor="middle" class="ip">172.31.0.30</text>

  <rect x="1075" y="382" width="260" height="98" class="box"/>
  <text x="1205" y="415" text-anchor="middle" class="label">honeypot</text>
  <text x="1205" y="438" text-anchor="middle" class="small">image: cowrie/cowrie:latest</text>
  <text x="1205" y="459" text-anchor="middle" class="ip">172.31.0.40 | ports 2225/2226</text>

  <rect x="650" y="462" width="300" height="50" class="box"/>
  <text x="800" y="492" text-anchor="middle" class="small">web.agent | honeypot.agent | ips.agent</text>

  <rect x="130" y="585" width="1340" height="320" class="zone"/>
  <text x="800" y="622" text-anchor="middle" class="zone-title">BACKEND</text>

  <rect x="640" y="610" width="320" height="92" class="box"/>
  <text x="800" y="642" text-anchor="middle" class="label">proxy</text>
  <text x="800" y="665" text-anchor="middle" class="small">image: nginx:1.27-alpine</text>
  <text x="800" y="686" text-anchor="middle" class="ip">dmz 172.31.0.50 | backend 172.32.0.50</text>

  <rect x="210" y="730" width="230" height="100" class="box"/>
  <text x="325" y="762" text-anchor="middle" class="label">logs</text>
  <text x="325" y="785" text-anchor="middle" class="small">image: grafana/loki:2.9.8</text>
  <text x="325" y="806" text-anchor="middle" class="ip">172.32.0.20</text>

  <rect x="470" y="730" width="260" height="100" class="box"/>
  <text x="600" y="762" text-anchor="middle" class="label">dmz.forwarder</text>
  <text x="600" y="785" text-anchor="middle" class="small">image: cr.fluentbit.io/fluent/fluent-bit:3.0</text>
  <text x="600" y="806" text-anchor="middle" class="ip">172.32.0.21</text>

  <rect x="760" y="730" width="230" height="100" class="box"/>
  <text x="875" y="762" text-anchor="middle" class="label">grafana</text>
  <text x="875" y="785" text-anchor="middle" class="small">image: grafana/grafana-oss:10.4.3</text>
  <text x="875" y="806" text-anchor="middle" class="ip">172.32.0.30</text>

  <rect x="1020" y="730" width="230" height="100" class="box"/>
  <text x="1135" y="762" text-anchor="middle" class="label">agenteia</text>
  <text x="1135" y="785" text-anchor="middle" class="small">image: python:3.11-slim</text>
  <text x="1135" y="806" text-anchor="middle" class="ip">172.32.0.40</text>

  <rect x="1280" y="730" width="230" height="100" class="box"/>
  <text x="1395" y="762" text-anchor="middle" class="label">database</text>
  <text x="1395" y="785" text-anchor="middle" class="small">image: postgres:16-alpine</text>
  <text x="1395" y="806" text-anchor="middle" class="ip">172.32.0.60</text>

  <rect x="640" y="842" width="610" height="48" class="box"/>
  <text x="945" y="871" text-anchor="middle" class="small">proxy.agent | agenteia.agent</text>

  <rect x="1080" y="610" width="360" height="98" class="box"/>
  <text x="1260" y="642" text-anchor="middle" class="label">Wazuh SIEM</text>
  <text x="1260" y="665" text-anchor="middle" class="small">wazuh.manager | wazuh.indexer | wazuh.dashboard</text>
  <text x="1260" y="686" text-anchor="middle" class="ip">172.32.0.70 | .71 | .72</text>

  <path d="M800 205 L800 240" class="edge"/>
  <circle cx="800" cy="205" r="6" class="dot"/>
  <circle cx="800" cy="240" r="6" class="dot"/>

  <path d="M800 332 L800 352" class="edge"/>
  <circle cx="800" cy="332" r="6" class="dot"/>
  <circle cx="800" cy="352" r="6" class="dot"/>

  <path d="M650 401 L440 431" class="edge"/>
  <path d="M650 401 L725 431" class="edge"/>
  <path d="M950 401 L1075 431" class="edge"/>
  <path d="M800 450 L800 610" class="edge"/>

  <circle cx="650" cy="401" r="6" class="dot"/>
  <circle cx="950" cy="401" r="6" class="dot"/>
  <circle cx="440" cy="431" r="6" class="dot"/>
  <circle cx="725" cy="431" r="6" class="dot"/>
  <circle cx="1075" cy="431" r="6" class="dot"/>
  <circle cx="800" cy="450" r="6" class="dot"/>
  <circle cx="800" cy="610" r="6" class="dot"/>

  <path d="M640 656 L440 780" class="edge"/>
  <path d="M720 702 L600 730" class="edge"/>
  <path d="M800 702 L875 730" class="edge"/>
  <path d="M880 702 L1135 730" class="edge"/>
  <path d="M955 656 L1080 656" class="edge"/>
  <path d="M945 702 L1395 730" class="edge"/>

  <circle cx="640" cy="656" r="6" class="dot"/>
  <circle cx="720" cy="702" r="6" class="dot"/>
  <circle cx="800" cy="702" r="6" class="dot"/>
  <circle cx="880" cy="702" r="6" class="dot"/>
  <circle cx="955" cy="656" r="6" class="dot"/>
  <circle cx="1080" cy="656" r="6" class="dot"/>
  <circle cx="440" cy="780" r="6" class="dot"/>
  <circle cx="600" cy="730" r="6" class="dot"/>
  <circle cx="875" cy="730" r="6" class="dot"/>
  <circle cx="1135" cy="730" r="6" class="dot"/>
  <circle cx="1395" cy="730" r="6" class="dot"/>

  <rect x="70" y="915" width="1460" height="42" rx="14" ry="14" fill="#e2e8f0"/>
  <text x="800" y="942" text-anchor="middle" class="small">Archivo generado desde docker-compose.lab.yml | Diagrama editable en SVG</text>
</svg>
